<svg width="1048" height="88" viewBox="0 0 1048 88" fill="none" xmlns="http://www.w3.org/2000/svg">
<circle cx="37" cy="43" r="37" fill="#7A9647"/>
<circle cx="254" cy="43" r="37" fill="#7A9647"/>
<path d="M485.056 22.992C485.909 22.7787 486.571 22.672 487.04 22.672C487.339 22.672 487.659 22.7147 488 22.8C488.725 23.0133 489.195 23.0133 489.408 22.8C489.493 22.7147 489.664 22.672 489.92 22.672C491.115 22.672 492.437 23.0773 493.888 23.888C494.997 24.5707 495.893 25.68 496.576 27.216C497.259 28.7093 497.6 30.3093 497.6 32.016C497.6 33.0827 497.216 34.384 496.448 35.92C495.68 37.456 495.296 38.416 495.296 38.8C495.296 39.0987 495.424 39.312 495.68 39.44C495.893 39.6107 496.256 40.0587 496.768 40.784C497.323 41.4667 497.6 41.8933 497.6 42.064C497.6 42.192 497.749 42.5973 498.048 43.28C498.475 44.2613 498.688 45.584 498.688 47.248C498.688 50.1067 498.24 51.984 497.344 52.88C496.832 53.392 496.576 53.7547 496.576 53.968C496.576 54.1813 496.299 54.3733 495.744 54.544C495.189 54.672 494.912 54.9493 494.912 55.376C494.912 55.7173 494.741 56.0373 494.4 56.336C494.101 56.6347 493.781 56.784 493.44 56.784H493.248C492.821 56.6987 492.267 56.8907 491.584 57.36C490.859 57.9147 489.792 58.2133 488.384 58.256C486.933 58.3413 486.101 58.4907 485.888 58.704C485.675 58.9173 485.291 59.024 484.736 59.024C483.797 59.024 482.901 58.7893 482.048 58.32C481.28 57.8933 480.576 57.68 479.936 57.68C479.339 57.68 478.869 57.3813 478.528 56.784C478.187 56.1867 477.76 55.6107 477.248 55.056C476.053 53.7333 475.456 52.3253 475.456 50.832C475.456 50.192 475.627 49.7227 475.968 49.424C476.267 49.168 476.821 48.8907 477.632 48.592C478.485 48.2933 479.104 48.144 479.488 48.144C479.787 48.144 480.341 48.6987 481.152 49.808C481.963 50.9173 482.368 51.664 482.368 52.048C482.368 52.304 482.539 52.432 482.88 52.432C483.221 52.432 483.52 52.6027 483.776 52.944C484.075 53.3707 484.864 53.584 486.144 53.584C487.723 53.584 489.045 53.3067 490.112 52.752C491.008 52.3253 491.584 51.8773 491.84 51.408C492.096 50.896 492.288 49.9573 492.416 48.592C492.416 48.5067 492.416 48.4 492.416 48.272C492.459 48.1013 492.48 47.9733 492.48 47.888C492.48 46.0533 491.947 44.7307 490.88 43.92C490.453 43.4933 489.664 43.28 488.512 43.28C487.829 43.28 487.317 43.3867 486.976 43.6C486.549 43.8987 485.995 44.048 485.312 44.048C483.605 44.048 482.475 43.4933 481.92 42.384C481.621 41.7867 481.472 41.3173 481.472 40.976C481.472 40.6773 481.664 40.336 482.048 39.952C482.091 39.9093 482.475 39.4187 483.2 38.48C483.968 37.5413 484.587 37.0507 485.056 37.008L486.848 36.752C487.445 36.624 487.893 36.6667 488.192 36.88C488.363 36.9653 488.491 37.008 488.576 37.008C489.003 37.008 489.493 36.7307 490.048 36.176C490.645 35.6213 490.987 35.0667 491.072 34.512C491.115 34.3413 491.179 34 491.264 33.488C491.349 32.976 491.413 32.6133 491.456 32.4C491.499 32.272 491.52 32.08 491.52 31.824C491.52 30.8853 491.157 30.096 490.432 29.456C489.749 28.7733 488.896 28.432 487.872 28.432C487.787 28.432 487.701 28.4533 487.616 28.496C487.531 28.496 487.445 28.496 487.36 28.496C486.208 28.6667 485.547 28.7947 485.376 28.88C484.821 29.0933 484.309 29.2213 483.84 29.264C483.541 29.3493 483.392 29.5627 483.392 29.904C483.392 30.2453 483.072 30.7787 482.432 31.504C481.835 32.2293 481.387 32.592 481.088 32.592C480.875 32.592 480.768 32.72 480.768 32.976C480.768 33.1893 480.597 33.296 480.256 33.296C479.829 33.296 479.381 33.4667 478.912 33.808C478.571 34.0213 478.272 34.128 478.016 34.128C477.632 34.128 477.44 33.8507 477.44 33.296C477.44 32.8693 477.333 32.592 477.12 32.464C476.907 32.3787 476.8 31.9947 476.8 31.312C476.8 30.5013 476.949 29.9467 477.248 29.648C477.547 29.392 477.76 29.328 477.888 29.456C477.931 29.4987 477.952 29.4773 477.952 29.392C477.952 29.0507 478.635 28.0693 480 26.448C481.408 24.8267 482.283 24.016 482.624 24.016C482.88 24.016 483.051 23.9307 483.136 23.76C483.179 23.6747 483.819 23.4187 485.056 22.992Z" fill="#A9A9A9"/>
<line x1="81.998" y1="41" x2="202.002" y2="41" stroke="#7A9647" stroke-width="5"/>
<line x1="305" y1="40.5" x2="425.004" y2="40.5" stroke="#A9A9A9" stroke-width="5"/>
<path d="M728.256 45.52C728.256 44.7947 728.341 43.408 728.512 41.36C728.683 39.2693 728.768 38.1387 728.768 37.968C728.768 37.7547 728.768 37.4987 728.768 37.2C728.811 36.8587 728.832 36.624 728.832 36.496C728.832 35.8133 728.789 35.472 728.704 35.472C728.533 35.472 728.149 35.8773 727.552 36.688C726.997 37.4987 726.635 38.16 726.464 38.672C726.379 38.928 726.037 39.3973 725.44 40.08C724.928 40.5067 724.672 40.8907 724.672 41.232C724.672 41.5733 724.331 42.2347 723.648 43.216C723.051 44.1547 722.752 44.7947 722.752 45.136C722.752 45.6907 723.712 45.9893 725.632 46.032H726.592C727.701 46.032 728.256 45.8613 728.256 45.52ZM728.64 34.768C728.64 34.64 728.576 34.576 728.448 34.576C728.32 34.576 728.256 34.64 728.256 34.768C728.256 34.8533 728.32 34.896 728.448 34.896C728.576 34.896 728.64 34.8533 728.64 34.768ZM731.904 24.848C732.16 24.5493 732.48 24.4 732.864 24.4C733.376 24.4 733.867 24.656 734.336 25.168C735.147 26.1067 735.552 27.8987 735.552 30.544C735.552 31.44 735.531 32.1227 735.488 32.592C735.445 33.104 735.296 35.152 735.04 38.736C734.997 39.2053 734.955 39.824 734.912 40.592C734.869 41.3173 734.827 41.9573 734.784 42.512C734.784 43.024 734.763 43.408 734.72 43.664C734.677 43.8347 734.656 44.0907 734.656 44.432C734.656 44.944 734.72 45.392 734.848 45.776C735.019 45.9893 735.723 46.1813 736.96 46.352C738.795 46.5227 739.712 47.0773 739.712 48.016C739.712 48.2293 739.648 48.5067 739.52 48.848C739.093 50.128 737.856 50.768 735.808 50.768C735.083 50.768 734.635 50.96 734.464 51.344C734.293 51.728 734.208 52.7093 734.208 54.288C734.208 55.6533 734.037 56.5067 733.696 56.848C733.355 57.1893 732.672 57.36 731.648 57.36C730.965 57.36 730.56 57.2533 730.432 57.04C730.304 56.8267 729.92 56.72 729.28 56.72C728.853 56.72 728.576 56.6347 728.448 56.464C728.32 56.2933 728.213 55.888 728.128 55.248C728.043 54.48 728 53.8613 728 53.392V52.624C728 51.8987 727.744 51.3867 727.232 51.088C726.763 50.7893 725.781 50.5973 724.288 50.512C723.264 50.4267 721.963 50.384 720.384 50.384C719.616 50.384 718.976 50.1707 718.464 49.744C717.995 49.4027 717.419 49.1467 716.736 48.976C715.883 48.8053 715.456 48.0587 715.456 46.736C715.456 45.84 715.627 44.9013 715.968 43.92C716.352 42.896 716.736 42.2133 717.12 41.872L717.44 41.296C717.653 40.912 717.867 40.5493 718.08 40.208C718.336 39.8667 718.528 39.696 718.656 39.696H718.72C718.933 39.824 719.04 39.76 719.04 39.504C719.04 39.248 719.381 38.5653 720.064 37.456C720.789 36.3467 721.323 35.6427 721.664 35.344C722.048 35.0453 722.24 34.7893 722.24 34.576C722.24 34.5333 722.24 34.4267 722.24 34.256C722.24 34.0853 722.261 33.9787 722.304 33.936C722.304 33.7653 722.539 33.5947 723.008 33.424C723.435 33.296 723.648 33.0613 723.648 32.72C723.648 32.4213 723.84 31.9947 724.224 31.44C724.608 30.8427 724.949 30.4373 725.248 30.224C725.504 30.096 725.632 29.84 725.632 29.456C725.632 28.9867 725.931 28.4107 726.528 27.728C727.168 27.0453 727.701 26.704 728.128 26.704C728.64 26.704 729.045 26.4693 729.344 26C729.643 25.5733 730.069 25.36 730.624 25.36C731.136 25.36 731.563 25.1893 731.904 24.848Z" fill="#A9A9A9"/>
<line x1="545" y1="40.5" x2="665.004" y2="40.5" stroke="#A9A9A9" stroke-width="5"/>
<path d="M973.056 23.76C973.312 23.504 973.632 23.4827 974.016 23.696C974.357 23.9093 974.997 24.016 975.936 24.016C976.832 24.016 977.28 24.1227 977.28 24.336C977.28 24.592 977.408 24.72 977.664 24.72C978.005 24.72 978.347 24.9333 978.688 25.36C979.029 25.7867 979.264 26.2987 979.392 26.896C979.477 27.3653 979.477 27.664 979.392 27.792C979.349 27.92 979.136 27.984 978.752 27.984C978.155 27.984 977.792 28.1333 977.664 28.432C977.451 28.7733 977.067 29.072 976.512 29.328C975.957 29.584 975.467 29.712 975.04 29.712C974.869 29.712 974.699 29.6693 974.528 29.584C974.4 29.4987 974.208 29.456 973.952 29.456C973.781 29.456 973.525 29.4987 973.184 29.584C972.885 29.6267 972.651 29.648 972.48 29.648H972.224C971.84 29.5627 971.285 29.648 970.56 29.904C970.304 29.9893 969.877 30.032 969.28 30.032C968.555 30.032 968.021 29.9893 967.68 29.904C966.997 29.8187 966.571 29.776 966.4 29.776C966.016 29.776 965.76 29.84 965.632 29.968C965.461 30.1387 965.291 31.0773 965.12 32.784C964.992 34.4907 964.907 35.408 964.864 35.536C964.779 35.8773 964.779 36.0907 964.864 36.176C964.949 36.2187 965.205 36.176 965.632 36.048C965.803 36.0053 966.144 35.9627 966.656 35.92C967.211 35.8773 967.659 35.8133 968 35.728C968.384 35.6 968.597 35.4507 968.64 35.28C968.683 35.1093 968.789 34.96 968.96 34.832C969.173 34.704 969.429 34.5973 969.728 34.512C970.069 34.384 970.368 34.2773 970.624 34.192C970.88 34.1067 971.2 34.0213 971.584 33.936C971.968 33.8507 972.224 33.7867 972.352 33.744C972.48 33.7013 972.651 33.68 972.864 33.68C973.077 33.68 973.312 33.7867 973.568 34C973.867 34.1707 974.208 34.256 974.592 34.256C976.341 34.256 977.899 34.9173 979.264 36.24C980.288 37.264 980.992 38.544 981.376 40.08L981.952 42.512L981.056 44.176C980.501 45.2853 980.224 46.096 980.224 46.608C980.224 47.1627 979.563 48.1227 978.24 49.488C976.917 50.8107 976.256 51.6 976.256 51.856C976.256 52.0693 975.979 52.432 975.424 52.944C974.869 53.456 974.485 53.712 974.272 53.712C974.016 53.712 973.269 54.096 972.032 54.864C970.795 55.5893 969.536 56.016 968.256 56.144C967.019 56.3147 966.272 56.5707 966.016 56.912C965.717 57.2107 965.483 57.296 965.312 57.168C965.184 57.0827 964.373 56.9547 962.88 56.784C961.472 56.6987 960.363 56.4427 959.552 56.016C958.784 55.5893 958.144 55.376 957.632 55.376C957.205 55.376 956.864 55.2907 956.608 55.12C956.437 54.992 956.224 54.5867 955.968 53.904C955.712 53.1787 955.584 52.6453 955.584 52.304V52.24C955.627 52.1973 955.648 52.1547 955.648 52.112C955.691 52.0267 956.288 51.7707 957.44 51.344C958.592 50.8747 959.189 50.576 959.232 50.448C959.36 50.2347 959.744 50.128 960.384 50.128C961.195 50.128 961.685 50.2773 961.856 50.576C961.984 50.832 962.219 50.9387 962.56 50.896C962.944 50.8533 963.264 50.896 963.52 51.024C964.032 51.4507 965.013 51.664 966.464 51.664C967.488 51.664 968.277 51.536 968.832 51.28C969.6 50.896 969.984 50.6187 969.984 50.448C969.984 50.2347 970.219 50.128 970.688 50.128C971.115 50.128 971.328 50 971.328 49.744C971.328 49.5307 971.499 49.424 971.84 49.424C972.139 49.424 972.544 49.1253 973.056 48.528C973.611 47.9307 973.909 47.4613 973.952 47.12C973.952 46.8213 974.187 46.288 974.656 45.52C975.253 44.496 975.552 43.3653 975.552 42.128C975.552 41.488 975.445 41.104 975.232 40.976C974.251 40.2933 972.821 39.9093 970.944 39.824C969.877 39.824 968.341 40.3147 966.336 41.296C964.203 42.32 962.923 42.832 962.496 42.832C962.027 42.832 961.728 42.9387 961.6 43.152C961.557 43.1947 961.493 43.216 961.408 43.216C961.195 43.216 960.853 42.9813 960.384 42.512C959.915 42.0427 959.531 41.552 959.232 41.04C958.891 40.3573 958.72 39.2907 958.72 37.84C958.72 37.456 958.763 37.0933 958.848 36.752C958.848 36.7093 958.848 36.6027 958.848 36.432C958.891 36.2613 958.912 36.048 958.912 35.792C958.955 35.4933 958.976 35.2587 958.976 35.088C958.976 35.0027 959.061 34.2987 959.232 32.976C959.403 31.6107 959.488 30.608 959.488 29.968C959.488 29.8827 959.467 29.7547 959.424 29.584C959.424 29.4133 959.424 29.2853 959.424 29.2C959.424 28.3893 959.595 27.92 959.936 27.792C960.277 27.6213 960.448 27.408 960.448 27.152C960.448 26.8533 960.683 26.5547 961.152 26.256C961.536 26 961.984 25.5307 962.496 24.848C962.795 24.4213 963.072 24.1653 963.328 24.08C963.627 23.952 964.117 23.888 964.8 23.888C965.824 23.888 966.4 23.952 966.528 24.08C966.613 24.1653 967.083 24.208 967.936 24.208C971.051 24.208 972.757 24.0587 973.056 23.76Z" fill="#A9A9A9"/>
<line x1="785" y1="40.5" x2="905.004" y2="40.5" stroke="#A9A9A9" stroke-width="5"/>
<line x1="1019.67" y1="42.5" x2="1047.33" y2="42.5" stroke="#A9A9A9" stroke-width="5"/>
<circle cx="485" cy="44" r="40.5" stroke="#A9A9A9" stroke-width="7"/>
<circle cx="725" cy="44" r="40.5" stroke="#A9A9A9" stroke-width="7"/>
<circle cx="965" cy="44" r="40.5" stroke="#A9A9A9" stroke-width="7"/>
</svg>
